<svg xmlns="http://www.w3.org/2000/svg"  viewBox="0 0 64 64" width="50px" height="50px" baseProfile="basic"><radialGradient id="7f9sTJ8i2pkn8qa3Z6C-Oa" cx="30.166" cy="-2255.334" r="41.833" gradientTransform="matrix(1 0 0 -1 0 -2220)" gradientUnits="userSpaceOnUse"><stop offset="0" stop-color="#f4e9c3"/><stop offset=".219" stop-color="#f8eecd"/><stop offset=".644" stop-color="#fdf4dc"/><stop offset="1" stop-color="#fff6e1"/></radialGradient><path fill="url(#7f9sTJ8i2pkn8qa3Z6C-Oa)" d="M61.501,18.008l-3.403,0c-0.872,0-1.716-0.507-1.989-1.335	c-0.454-1.377,0.575-2.665,1.891-2.665l0,0c1.85,0,3.32-1.69,2.94-3.6c-0.28-1.43-1.62-2.4-3.07-2.4L45.5,8C44.67,8,44,7.33,44,6.5	S44.67,5,45.5,5l5.928,0c1.006,0,1.983-0.549,2.366-1.48C54.53,1.734,53.209,0,51.5,0L7.572,0C6.566,0,5.589,0.549,5.206,1.48	C4.47,3.266,5.791,5,7.5,5l0,0c0.69,0,1.32,0.28,1.77,0.73c0.565,0.565,0.862,1.414,0.673,2.31C9.712,9.133,8.498,10,7.381,10	L4.69,10c-2.015,0-3.348,0.972-3.63,2.395C0.681,14.307,2.152,16,4,16h22v7H7.5C5.015,23,3,25.015,3,27.5v0	C3,29.985,5.015,32,7.5,32H19v12L4.687,44c-2.156,0-4.143,1.431-4.586,3.54C-0.506,50.429,1.711,53,4.5,53l2.879,0	c1.168,0,2.271,0.742,2.546,1.877C10.324,56.527,9.083,58,7.5,58l-0.358,0c-1.474,0-2.837,0.998-3.094,2.45	C3.713,62.353,5.16,64,7,64l45.914,0c1.642,0,3.124-1.232,3.191-2.873C56.176,59.409,54.81,58,53.108,58H53.5	c-1.583,0-2.824-1.473-2.425-3.123C51.35,53.742,52.453,53,53.621,53l3.287,0c2.73,0,4.833-1.704,5.069-4.038	C62.247,46.282,60.127,44,57.5,44H48v-4h8.5c1.933,0,3.5-1.567,3.5-3.5v0c0-1.933-1.567-3.5-3.5-3.5H48V22.999l13.411,0.009	c1.14,0,2.2-0.72,2.5-1.82C64.351,19.527,63.091,18.008,61.501,18.008z"/><linearGradient id="7f9sTJ8i2pkn8qa3Z6C-Ob" x1="44.353" x2="44.353" y1="66.327" y2="33.925" gradientUnits="userSpaceOnUse"><stop offset="0" stop-color="#1d7be5"/><stop offset=".326" stop-color="#2493ea"/><stop offset=".745" stop-color="#2bacee"/><stop offset="1" stop-color="#2eb5f0"/></linearGradient><polygon fill="url(#7f9sTJ8i2pkn8qa3Z6C-Ob)" points="35.706,51.529 53,49.059 53,33 35.706,34.235"/><linearGradient id="7f9sTJ8i2pkn8qa3Z6C-Oc" x1="41.265" x2="41.265" y1="34.235" y2="23.29" gradientUnits="userSpaceOnUse"><stop offset="0" stop-color="#155cde"/><stop offset=".625" stop-color="#2289e7"/><stop offset="1" stop-color="#289fec"/></linearGradient><polygon fill="url(#7f9sTJ8i2pkn8qa3Z6C-Oc)" points="53,33 43.118,29.294 29.529,30.529 35.706,34.235"/><linearGradient id="7f9sTJ8i2pkn8qa3Z6C-Od" x1="32.618" x2="32.618" y1="51.529" y2="5.014" gradientUnits="userSpaceOnUse"><stop offset="0" stop-color="#155cde"/><stop offset=".625" stop-color="#2289e7"/><stop offset="1" stop-color="#289fec"/></linearGradient><polygon fill="url(#7f9sTJ8i2pkn8qa3Z6C-Od)" points="29.529,30.529 29.529,46.588 35.706,51.529 35.706,34.235"/><linearGradient id="7f9sTJ8i2pkn8qa3Z6C-Oe" x1="23.971" x2="23.971" y1="55.087" y2="34.206" gradientUnits="userSpaceOnUse"><stop offset="0" stop-color="#ffda76"/><stop offset=".335" stop-color="#ffe075"/><stop offset="1" stop-color="#ffe673"/></linearGradient><polygon fill="url(#7f9sTJ8i2pkn8qa3Z6C-Oe)" points="14.706,54 33.235,51.529 33.235,34.235 14.706,35.471"/><linearGradient id="7f9sTJ8i2pkn8qa3Z6C-Of" x1="22.118" x2="22.118" y1="39.121" y2="29.942" gradientUnits="userSpaceOnUse"><stop offset="0" stop-color="#feaa53"/><stop offset=".612" stop-color="#ffcd49"/><stop offset="1" stop-color="#ffde44"/></linearGradient><polygon fill="url(#7f9sTJ8i2pkn8qa3Z6C-Of)" points="33.235,34.235 27.059,30.529 11,31.765 14.706,35.471"/><linearGradient id="7f9sTJ8i2pkn8qa3Z6C-Og" x1="12.853" x2="12.853" y1="70.427" y2="29.123" gradientUnits="userSpaceOnUse"><stop offset="0" stop-color="#feaa53"/><stop offset=".612" stop-color="#ffcd49"/><stop offset="1" stop-color="#ffde44"/></linearGradient><polygon fill="url(#7f9sTJ8i2pkn8qa3Z6C-Og)" points="11,31.765 11,49.059 14.706,54 14.706,35.471"/><linearGradient id="7f9sTJ8i2pkn8qa3Z6C-Oh" x1="44.353" x2="44.353" y1="12.025" y2="31.945" gradientUnits="userSpaceOnUse"><stop offset="0" stop-color="#62de8f"/><stop offset=".478" stop-color="#5dd18d"/><stop offset="1" stop-color="#56be89"/></linearGradient><polygon fill="url(#7f9sTJ8i2pkn8qa3Z6C-Oh)" points="35.706,31.765 53,30.529 53,12 35.706,12"/><linearGradient id="7f9sTJ8i2pkn8qa3Z6C-Oi" x1="32.618" x2="32.618" y1="31.988" y2="12.223" gradientUnits="userSpaceOnUse"><stop offset="0" stop-color="#31995f"/><stop offset=".093" stop-color="#329e62"/><stop offset=".666" stop-color="#39ba71"/><stop offset="1" stop-color="#3bc477"/></linearGradient><polygon fill="url(#7f9sTJ8i2pkn8qa3Z6C-Oi)" points="29.529,14.471 29.529,28.059 35.706,31.765 35.706,12"/><linearGradient id="7f9sTJ8i2pkn8qa3Z6C-Oj" x1="23.971" x2="23.971" y1="33.03" y2="12.03" gradientUnits="userSpaceOnUse"><stop offset="0" stop-color="#ff724e"/><stop offset=".214" stop-color="#fe7366"/><stop offset=".524" stop-color="#fc7383"/><stop offset=".793" stop-color="#fb7495"/><stop offset=".989" stop-color="#fb749b"/></linearGradient><polygon fill="url(#7f9sTJ8i2pkn8qa3Z6C-Oj)" points="14.706,33 33.235,31.765 33.235,12 14.706,12"/><linearGradient id="7f9sTJ8i2pkn8qa3Z6C-Ok" x1="12.853" x2="12.853" y1="35.72" y2="9.085" gradientUnits="userSpaceOnUse"><stop offset="0" stop-color="#ff5840"/><stop offset="1" stop-color="#fc5472"/></linearGradient><polygon fill="url(#7f9sTJ8i2pkn8qa3Z6C-Ok)" points="11,14.471 11,29.294 14.706,33 14.706,12"/></svg>